<svg id="Layer_5" fill="#ffffff" enable-background="new 0 0 64 64" height="512" viewBox="0 0 64 64" width="512" xmlns="http://www.w3.org/2000/svg"><path d="m50 53c-1.654 0-3 1.346-3 3s1.346 3 3 3 3-1.346 3-3-1.346-3-3-3zm0 4c-.552 0-1-.449-1-1s.448-1 1-1 1 .449 1 1-.448 1-1 1z"/><path d="m16 53c-1.654 0-3 1.346-3 3s1.346 3 3 3 3-1.346 3-3-1.346-3-3-3zm0 4c-.552 0-1-.449-1-1s.448-1 1-1 1 .449 1 1-.448 1-1 1z"/><path d="m61 53v-7.315c0-3.218-2.181-6.01-5.303-6.791l-3.026-.756-3.958-7.353c-1.604-2.978-4.459-4.993-7.713-5.585v-6.2h1c1.654 0 3-1.346 3-3v-12c0-1.654-1.346-3-3-3h-30c-1.654 0-3 1.346-3 3v12c0 1.654 1.346 3 3 3h1v6.253c-6.816 1.255-12 7.23-12 14.403v4.687c0 3.161 1.008 6.159 2.847 8.657h-.847c-1.103 0-2 .897-2 2v2c0 1.103.897 2 2 2h6.685c1.126 2.361 3.53 4 6.315 4s5.188-1.639 6.315-4h21.37c1.126 2.361 3.53 4 6.315 4s5.188-1.639 6.315-4h4.685c1.103 0 2-.897 2-2v-2c0-1.103-.897-2-2-2zm-2.294-9c.189.529.294 1.096.294 1.685v.315h-5.829c.413-1.164 1.525-2 2.829-2zm-19.706-19h-2v-6h2zm-4-6v6h-16v-6zm-24-3v-12c0-.551.448-1 1-1h30c.552 0 1 .449 1 1v12c0 .551-.448 1-1 1h-30c-.552 0-1-.449-1-1zm4 3h2v6h-1.343c-.222 0-.438.023-.657.033zm-12 25.343v-1.343h1c.552 0 1 .449 1 1v2.042c0 .551-.448 1-1 1h-.704c-.19-.877-.296-1.779-.296-2.699zm.904 4.699h.096c1.654 0 3-1.346 3-3v-2.042c0-1.654-1.346-3-3-3h-1v-1.343c0-6.979 5.678-12.657 12.657-12.657h23.37c3.315 0 6.353 1.813 7.924 4.733l4.378 8.13 3.884.971c.832.208 1.569.617 2.168 1.166h-1.381c-2.757 0-5 2.243-5 5v1h8v5h-2.685c-1.126-2.361-3.53-4-6.315-4-.695 0-1.366.105-2 .295v-10.554l-3.697-6.655c-1.058-1.903-3.068-3.086-5.245-3.086h-23.002c-5.673 0-10.423 4.251-11.05 9.89l-.053.478 4.047 4.046v9.586h-2.559c-1.099-1.168-1.956-2.505-2.537-3.958zm12.096-.042c-1.958 0-3.728.81-5 2.111v-8.525l-2.586-2.586h22.586v13h-8.685c-1.127-2.361-3.53-4-6.315-4zm23.058-18c1.452 0 2.792.789 3.497 2.058l2.745 4.942h-12.3v-7zm-8.058 7h-23.807c.965-4.059 4.592-7 8.863-7h14.944zm2 6h4v-2h-4v-2h13v10.264c-.991.693-1.79 1.636-2.315 2.736h-10.685zm-30 13v-2h6.08c-.047.328-.08.66-.08 1s.033.672.08 1zm13 4c-2.757 0-5-2.243-5-5s2.243-5 5-5 5 2.243 5 5-2.243 5-5 5zm6.92-4c.047-.328.08-.66.08-1s-.033-.672-.08-1h20.16c-.047.328-.08.66-.08 1s.033.672.08 1zm27.08 4c-2.757 0-5-2.243-5-5s2.243-5 5-5 5 2.243 5 5-2.243 5-5 5zm11-4h-4.08c.047-.328.08-.66.08-1s-.033-.672-.08-1h4.08z"/><path d="m13 43h4v2h-4z"/><path d="m16 5h-3v10h2v-4h1c.552 0 1 .449 1 1v3h2v-3c0-.771-.301-1.468-.78-2 .479-.532.78-1.229.78-2 0-1.654-1.346-3-3-3zm-1 4v-2h1c.552 0 1 .449 1 1s-.448 1-1 1z"/><path d="m21 15h4v-2h-2v-2h2v-2h-2v-2h2v-2h-4z"/><path d="m31 9.877-1.219-4.877h-2.781v10h2v-4.877l1.219 4.877h2.781v-10h-2z"/><path d="m35 7h2v8h2v-8h2v-2h-6z"/></svg>
