<svg height="512" viewBox="0 0 512 512" width="512" xmlns="http://www.w3.org/2000/svg"><path d="m341.473 376a18.38 18.38 0 0 0 -16.9 11.142l-19.221 44.858 33.616 8 6.384-8 18.878-25.382-5.86-4.994a18.383 18.383 0 0 0 -16.897-25.624z" fill="#f0bd9b"/><path d="m381.473 376a18.38 18.38 0 0 0 -16.9 11.142l-19.221 44.858 10.039 8 23.709 1.669 6.252-9.669 19.361-26.509-6.343-3.867a18.383 18.383 0 0 0 -16.897-25.624z" fill="#f5c19e"/><path d="m288 296v-24l16-16-16-16 16-16-16-16v-24h-64v112l32 32z" fill="#d9d9d9"/><rect fill="#878787" height="160" rx="40" width="144" x="184" y="24"/><path d="m296 88h-80v-16a16 16 0 0 1 16-16h48a16 16 0 0 1 16 16z" fill="#8bc89c"/><path d="m280 152h-48a16 16 0 0 1 -16-16v-16h80v16a16 16 0 0 1 -16 16z" fill="#fdb62f"/><path d="m264 208h-16v112l8 8 8-8z" fill="#b9b9b9"/><path d="m89.352 368h64v120h-64z" fill="#e4e4e2"/><path d="m421.291 376c-7.5.119-14.043 5.195-17 12.085l-18.815 43.915h-72.124l-16-16-1.352-8h-142.648v64l112 16 120.432-14.168a32 32 0 0 0 23.663-15.255l10.041-16.648a168.083 168.083 0 0 0 10.555-20.586l8.451-19.719a18.384 18.384 0 0 0 -17.203-25.624z" fill="#fec9a3"/><path d="m24 360h65.352v128h-65.352z" fill="#3474a6"/><g fill="#fdb62f"><path d="m368 272h16v16h-16z"/><path d="m344 296h16v16h-16z"/><path d="m392 296h16v16h-16z"/><path d="m368 320h16v16h-16z"/><path d="m104 56h16v16h-16z"/><path d="m80 80h16v16h-16z"/><path d="m128 80h16v16h-16z"/><path d="m104 104h16v16h-16z"/></g><path d="m384 88h16v16h-16z" fill="#fcd795"/><path d="m368 104h16v16h-16z" fill="#fcd795"/><path d="m400 104h16v16h-16z" fill="#fcd795"/><path d="m384 120h16v16h-16z" fill="#fcd795"/><path d="m136 232h16v16h-16z" fill="#fcd795"/><path d="m120 248h16v16h-16z" fill="#fcd795"/><path d="m152 248h16v16h-16z" fill="#fcd795"/><path d="m136 264h16v16h-16z" fill="#fcd795"/><path d="m153.352 376a53.9 53.9 0 0 1 44.848-24h14.311a53.893 53.893 0 0 1 44.844 24h48a16 16 0 0 1 16 16v16a8 8 0 0 1 -8 8h-160z" fill="#fec9a3"/><path d="m324.614 432-27.262-16h-73.352v16h89.351z" fill="#f7bb8f"/><path d="m224 184h64v16h-64z" fill="#b9b9b9"/></svg>